<mxfile host="app.diagrams.net" modified="2024-05-31T19:47:34.175Z" agent="Mozilla/5.0 (Windows NT 10.0; Win64; x64) AppleWebKit/537.36 (KHTML, like Gecko) Chrome/124.0.0.0 Safari/537.36" etag="W8cLTkXYje-W-UfLIfPX" version="24.4.11" type="google">
  <diagram name="Page-1" id="eHVgmvbTRGj3YwsETb8w">
    <mxGraphModel grid="1" page="1" gridSize="10" guides="1" tooltips="1" connect="1" arrows="1" fold="1" pageScale="1" pageWidth="850" pageHeight="1100" math="0" shadow="0">
      <root>
        <mxCell id="0" />
        <mxCell id="1" parent="0" />
        <mxCell id="J9ToLw-HQ0INyG1XmrFw-48" style="edgeStyle=orthogonalEdgeStyle;rounded=0;orthogonalLoop=1;jettySize=auto;html=1;entryX=0;entryY=0.5;entryDx=0;entryDy=0;" edge="1" parent="1" source="J9ToLw-HQ0INyG1XmrFw-2" target="J9ToLw-HQ0INyG1XmrFw-3">
          <mxGeometry relative="1" as="geometry">
            <Array as="points">
              <mxPoint x="540" y="280" />
              <mxPoint x="540" y="170" />
            </Array>
          </mxGeometry>
        </mxCell>
        <mxCell id="J9ToLw-HQ0INyG1XmrFw-2" value="ocelot.omni-rs.com" style="rounded=1;whiteSpace=wrap;html=1;absoluteArcSize=1;arcSize=14;strokeWidth=2;" vertex="1" parent="1">
          <mxGeometry x="160" y="260" width="180" height="40" as="geometry" />
        </mxCell>
        <mxCell id="J9ToLw-HQ0INyG1XmrFw-14" style="edgeStyle=orthogonalEdgeStyle;rounded=0;orthogonalLoop=1;jettySize=auto;html=1;" edge="1" parent="1" source="J9ToLw-HQ0INyG1XmrFw-3" target="J9ToLw-HQ0INyG1XmrFw-9">
          <mxGeometry relative="1" as="geometry" />
        </mxCell>
        <mxCell id="J9ToLw-HQ0INyG1XmrFw-45" style="edgeStyle=orthogonalEdgeStyle;rounded=0;orthogonalLoop=1;jettySize=auto;html=1;entryX=1;entryY=0.5;entryDx=0;entryDy=0;" edge="1" parent="1" source="J9ToLw-HQ0INyG1XmrFw-3" target="J9ToLw-HQ0INyG1XmrFw-17">
          <mxGeometry relative="1" as="geometry">
            <Array as="points">
              <mxPoint x="800" y="170" />
              <mxPoint x="800" y="540" />
            </Array>
          </mxGeometry>
        </mxCell>
        <mxCell id="J9ToLw-HQ0INyG1XmrFw-46" style="edgeStyle=orthogonalEdgeStyle;rounded=0;orthogonalLoop=1;jettySize=auto;html=1;entryX=1;entryY=0.5;entryDx=0;entryDy=0;" edge="1" parent="1" source="J9ToLw-HQ0INyG1XmrFw-3" target="J9ToLw-HQ0INyG1XmrFw-15">
          <mxGeometry relative="1" as="geometry">
            <Array as="points">
              <mxPoint x="800" y="170" />
              <mxPoint x="800" y="430" />
            </Array>
          </mxGeometry>
        </mxCell>
        <mxCell id="J9ToLw-HQ0INyG1XmrFw-3" value="identity.omni-rs.com" style="rounded=1;whiteSpace=wrap;html=1;absoluteArcSize=1;arcSize=14;strokeWidth=2;" vertex="1" parent="1">
          <mxGeometry x="610" y="150" width="170" height="40" as="geometry" />
        </mxCell>
        <mxCell id="J9ToLw-HQ0INyG1XmrFw-9" value="&lt;div&gt;&lt;br&gt;&lt;/div&gt;postgres: identity" style="strokeWidth=2;html=1;shape=mxgraph.flowchart.database;whiteSpace=wrap;" vertex="1" parent="1">
          <mxGeometry x="645" y="240" width="100" height="70" as="geometry" />
        </mxCell>
        <mxCell id="J9ToLw-HQ0INyG1XmrFw-15" value="consul.omni-rs.com" style="rounded=1;whiteSpace=wrap;html=1;absoluteArcSize=1;arcSize=14;strokeWidth=2;" vertex="1" parent="1">
          <mxGeometry x="580" y="410" width="180" height="40" as="geometry" />
        </mxCell>
        <mxCell id="J9ToLw-HQ0INyG1XmrFw-16" value="kafka.omni-rs.com" style="rounded=1;whiteSpace=wrap;html=1;absoluteArcSize=1;arcSize=14;strokeWidth=2;" vertex="1" parent="1">
          <mxGeometry x="580" y="620" width="180" height="40" as="geometry" />
        </mxCell>
        <mxCell id="J9ToLw-HQ0INyG1XmrFw-26" style="edgeStyle=orthogonalEdgeStyle;rounded=0;orthogonalLoop=1;jettySize=auto;html=1;entryX=0.5;entryY=1;entryDx=0;entryDy=0;" edge="1" parent="1" source="J9ToLw-HQ0INyG1XmrFw-17" target="J9ToLw-HQ0INyG1XmrFw-15">
          <mxGeometry relative="1" as="geometry" />
        </mxCell>
        <mxCell id="J9ToLw-HQ0INyG1XmrFw-17" value="vault.omni-rs.com" style="rounded=1;whiteSpace=wrap;html=1;absoluteArcSize=1;arcSize=14;strokeWidth=2;" vertex="1" parent="1">
          <mxGeometry x="580" y="520" width="180" height="40" as="geometry" />
        </mxCell>
        <mxCell id="J9ToLw-HQ0INyG1XmrFw-36" value="" style="group" connectable="0" vertex="1" parent="1">
          <mxGeometry x="10" y="30" width="480" height="160" as="geometry" />
        </mxCell>
        <mxCell id="J9ToLw-HQ0INyG1XmrFw-1" value="backoffice.omni-rs.com" style="rounded=1;whiteSpace=wrap;html=1;absoluteArcSize=1;arcSize=14;strokeWidth=2;" vertex="1" parent="J9ToLw-HQ0INyG1XmrFw-36">
          <mxGeometry x="40" y="50" width="180" height="40" as="geometry" />
        </mxCell>
        <mxCell id="J9ToLw-HQ0INyG1XmrFw-4" value="retail-assistant.omni-rs.com" style="rounded=1;whiteSpace=wrap;html=1;absoluteArcSize=1;arcSize=14;strokeWidth=2;" vertex="1" parent="J9ToLw-HQ0INyG1XmrFw-36">
          <mxGeometry x="270" y="50" width="180" height="40" as="geometry" />
        </mxCell>
        <mxCell id="J9ToLw-HQ0INyG1XmrFw-34" value="frontend services" style="shape=umlFrame;whiteSpace=wrap;html=1;pointerEvents=0;width=130;height=30;" vertex="1" parent="J9ToLw-HQ0INyG1XmrFw-36">
          <mxGeometry width="480" height="160" as="geometry" />
        </mxCell>
        <mxCell id="J9ToLw-HQ0INyG1XmrFw-37" value="" style="group" connectable="0" vertex="1" parent="1">
          <mxGeometry x="20" y="380" width="430" height="300" as="geometry" />
        </mxCell>
        <mxCell id="J9ToLw-HQ0INyG1XmrFw-13" style="edgeStyle=orthogonalEdgeStyle;rounded=0;orthogonalLoop=1;jettySize=auto;html=1;" edge="1" parent="J9ToLw-HQ0INyG1XmrFw-37" source="J9ToLw-HQ0INyG1XmrFw-5" target="J9ToLw-HQ0INyG1XmrFw-8">
          <mxGeometry relative="1" as="geometry" />
        </mxCell>
        <mxCell id="J9ToLw-HQ0INyG1XmrFw-5" value="product-catalog.omni-rs.com" style="rounded=1;whiteSpace=wrap;html=1;absoluteArcSize=1;arcSize=14;strokeWidth=2;" vertex="1" parent="J9ToLw-HQ0INyG1XmrFw-37">
          <mxGeometry x="220" y="70" width="180" height="40" as="geometry" />
        </mxCell>
        <mxCell id="J9ToLw-HQ0INyG1XmrFw-6" value="retail.omni-rs.com" style="rounded=1;whiteSpace=wrap;html=1;absoluteArcSize=1;arcSize=14;strokeWidth=2;" vertex="1" parent="J9ToLw-HQ0INyG1XmrFw-37">
          <mxGeometry x="30" y="70" width="170" height="40" as="geometry" />
        </mxCell>
        <mxCell id="J9ToLw-HQ0INyG1XmrFw-7" value="&lt;div&gt;&lt;br&gt;&lt;/div&gt;postgres: retail" style="strokeWidth=2;html=1;shape=mxgraph.flowchart.database;whiteSpace=wrap;" vertex="1" parent="J9ToLw-HQ0INyG1XmrFw-37">
          <mxGeometry x="65" y="180" width="100" height="70" as="geometry" />
        </mxCell>
        <mxCell id="J9ToLw-HQ0INyG1XmrFw-8" value="&lt;div&gt;&lt;br&gt;&lt;/div&gt;postgres: product_catalog" style="strokeWidth=2;html=1;shape=mxgraph.flowchart.database;whiteSpace=wrap;" vertex="1" parent="J9ToLw-HQ0INyG1XmrFw-37">
          <mxGeometry x="260" y="180" width="100" height="70" as="geometry" />
        </mxCell>
        <mxCell id="J9ToLw-HQ0INyG1XmrFw-12" style="edgeStyle=orthogonalEdgeStyle;rounded=0;orthogonalLoop=1;jettySize=auto;html=1;entryX=0.5;entryY=0;entryDx=0;entryDy=0;entryPerimeter=0;" edge="1" parent="J9ToLw-HQ0INyG1XmrFw-37" source="J9ToLw-HQ0INyG1XmrFw-6" target="J9ToLw-HQ0INyG1XmrFw-7">
          <mxGeometry relative="1" as="geometry" />
        </mxCell>
        <mxCell id="J9ToLw-HQ0INyG1XmrFw-31" value="backend services" style="shape=umlFrame;whiteSpace=wrap;html=1;pointerEvents=0;width=130;height=30;" vertex="1" parent="J9ToLw-HQ0INyG1XmrFw-37">
          <mxGeometry y="20" width="430" height="280" as="geometry" />
        </mxCell>
        <mxCell id="J9ToLw-HQ0INyG1XmrFw-40" style="edgeStyle=orthogonalEdgeStyle;rounded=0;orthogonalLoop=1;jettySize=auto;html=1;entryX=0.5;entryY=0;entryDx=0;entryDy=0;" edge="1" parent="1" source="J9ToLw-HQ0INyG1XmrFw-34" target="J9ToLw-HQ0INyG1XmrFw-2">
          <mxGeometry relative="1" as="geometry" />
        </mxCell>
        <mxCell id="J9ToLw-HQ0INyG1XmrFw-41" style="edgeStyle=orthogonalEdgeStyle;rounded=0;orthogonalLoop=1;jettySize=auto;html=1;entryX=0.535;entryY=0.01;entryDx=0;entryDy=0;entryPerimeter=0;" edge="1" parent="1" source="J9ToLw-HQ0INyG1XmrFw-2" target="J9ToLw-HQ0INyG1XmrFw-31">
          <mxGeometry relative="1" as="geometry" />
        </mxCell>
        <mxCell id="J9ToLw-HQ0INyG1XmrFw-42" style="edgeStyle=orthogonalEdgeStyle;rounded=0;orthogonalLoop=1;jettySize=auto;html=1;entryX=0;entryY=0.5;entryDx=0;entryDy=0;" edge="1" parent="1" source="J9ToLw-HQ0INyG1XmrFw-31" target="J9ToLw-HQ0INyG1XmrFw-17">
          <mxGeometry relative="1" as="geometry" />
        </mxCell>
        <mxCell id="J9ToLw-HQ0INyG1XmrFw-44" style="edgeStyle=orthogonalEdgeStyle;rounded=0;orthogonalLoop=1;jettySize=auto;html=1;entryX=0;entryY=0.5;entryDx=0;entryDy=0;" edge="1" parent="1">
          <mxGeometry relative="1" as="geometry">
            <mxPoint x="450" y="430" as="sourcePoint" />
            <mxPoint x="580" y="429.5" as="targetPoint" />
          </mxGeometry>
        </mxCell>
        <mxCell id="J9ToLw-HQ0INyG1XmrFw-47" style="edgeStyle=orthogonalEdgeStyle;rounded=0;orthogonalLoop=1;jettySize=auto;html=1;entryX=0.5;entryY=0;entryDx=0;entryDy=0;" edge="1" parent="1" source="J9ToLw-HQ0INyG1XmrFw-34" target="J9ToLw-HQ0INyG1XmrFw-3">
          <mxGeometry relative="1" as="geometry" />
        </mxCell>
        <mxCell id="J9ToLw-HQ0INyG1XmrFw-67" style="edgeStyle=orthogonalEdgeStyle;rounded=0;orthogonalLoop=1;jettySize=auto;html=1;" edge="1" parent="1" source="J9ToLw-HQ0INyG1XmrFw-31" target="J9ToLw-HQ0INyG1XmrFw-16">
          <mxGeometry relative="1" as="geometry">
            <Array as="points">
              <mxPoint x="470" y="640" />
              <mxPoint x="470" y="640" />
            </Array>
          </mxGeometry>
        </mxCell>
      </root>
    </mxGraphModel>
  </diagram>
</mxfile>
